<mxfile host="Electron" agent="Mozilla/5.0 (Windows NT 10.0; Win64; x64) AppleWebKit/537.36 (KHTML, like Gecko) draw.io/28.2.5 Chrome/138.0.7204.251 Electron/37.6.1 Safari/537.36" version="28.2.5">
  <diagram name="Page-1" id="xgmEG4zYcMruIWJql82G">
    <mxGraphModel dx="872" dy="537" grid="1" gridSize="10" guides="1" tooltips="1" connect="1" arrows="1" fold="1" page="1" pageScale="1" pageWidth="850" pageHeight="1100" math="0" shadow="0">
      <root>
        <mxCell id="0" />
        <mxCell id="1" parent="0" />
        <mxCell id="-_sWhagyzkq0pdcElnaS-1" value="crm_cust_info" style="swimlane;fontStyle=0;childLayout=stackLayout;horizontal=1;startSize=30;horizontalStack=0;resizeParent=1;resizeParentMax=0;resizeLast=0;collapsible=1;marginBottom=0;whiteSpace=wrap;html=1;fillColor=#dae8fc;rounded=1;shadow=0;glass=0;fontSize=17;strokeColor=#6c8ebf;" parent="1" vertex="1">
          <mxGeometry x="228" y="380" width="160" height="90" as="geometry" />
        </mxCell>
        <mxCell id="-_sWhagyzkq0pdcElnaS-2" value="cst_id" style="text;strokeColor=none;fillColor=none;align=left;verticalAlign=middle;spacingLeft=4;spacingRight=4;overflow=hidden;points=[[0,0.5],[1,0.5]];portConstraint=eastwest;rotatable=0;whiteSpace=wrap;html=1;fontSize=17;" parent="-_sWhagyzkq0pdcElnaS-1" vertex="1">
          <mxGeometry y="30" width="160" height="30" as="geometry" />
        </mxCell>
        <mxCell id="-_sWhagyzkq0pdcElnaS-3" value="cst_key" style="text;strokeColor=none;fillColor=none;align=left;verticalAlign=middle;spacingLeft=4;spacingRight=4;overflow=hidden;points=[[0,0.5],[1,0.5]];portConstraint=eastwest;rotatable=0;whiteSpace=wrap;html=1;fontSize=17;" parent="-_sWhagyzkq0pdcElnaS-1" vertex="1">
          <mxGeometry y="60" width="160" height="30" as="geometry" />
        </mxCell>
        <mxCell id="-_sWhagyzkq0pdcElnaS-4" value="&lt;font style=&quot;font-size: 14px;&quot;&gt;Customer information&lt;/font&gt;" style="rounded=1;whiteSpace=wrap;html=1;fillColor=none;strokeColor=none;" parent="1" vertex="1">
          <mxGeometry x="238" y="350" width="160" height="30" as="geometry" />
        </mxCell>
        <mxCell id="-_sWhagyzkq0pdcElnaS-5" value="crm_prd_info" style="swimlane;fontStyle=0;childLayout=stackLayout;horizontal=1;startSize=30;horizontalStack=0;resizeParent=1;resizeParentMax=0;resizeLast=0;collapsible=1;marginBottom=0;whiteSpace=wrap;html=1;fillColor=#dae8fc;rounded=1;shadow=0;glass=0;fontSize=17;strokeColor=#6c8ebf;" parent="1" vertex="1">
          <mxGeometry x="228" y="170" width="160" height="60" as="geometry" />
        </mxCell>
        <mxCell id="-_sWhagyzkq0pdcElnaS-6" value="prd_key" style="text;strokeColor=none;fillColor=none;align=left;verticalAlign=middle;spacingLeft=4;spacingRight=4;overflow=hidden;points=[[0,0.5],[1,0.5]];portConstraint=eastwest;rotatable=0;whiteSpace=wrap;html=1;fontSize=17;" parent="-_sWhagyzkq0pdcElnaS-5" vertex="1">
          <mxGeometry y="30" width="160" height="30" as="geometry" />
        </mxCell>
        <mxCell id="-_sWhagyzkq0pdcElnaS-7" value="&lt;span style=&quot;font-size: 14px;&quot;&gt;Current &amp;amp; History product information&lt;/span&gt;" style="rounded=1;whiteSpace=wrap;html=1;fillColor=none;strokeColor=none;" parent="1" vertex="1">
          <mxGeometry x="198" y="130" width="230" height="30" as="geometry" />
        </mxCell>
        <mxCell id="-_sWhagyzkq0pdcElnaS-8" value="crm_sales_details" style="swimlane;fontStyle=0;childLayout=stackLayout;horizontal=1;startSize=30;horizontalStack=0;resizeParent=1;resizeParentMax=0;resizeLast=0;collapsible=1;marginBottom=0;whiteSpace=wrap;html=1;fillColor=#dae8fc;rounded=1;shadow=0;glass=0;fontSize=17;strokeColor=#6c8ebf;" parent="1" vertex="1">
          <mxGeometry x="33" y="260" width="150" height="90" as="geometry" />
        </mxCell>
        <mxCell id="-_sWhagyzkq0pdcElnaS-9" value="prd_key" style="text;strokeColor=none;fillColor=none;align=left;verticalAlign=middle;spacingLeft=4;spacingRight=4;overflow=hidden;points=[[0,0.5],[1,0.5]];portConstraint=eastwest;rotatable=0;whiteSpace=wrap;html=1;fontSize=17;" parent="-_sWhagyzkq0pdcElnaS-8" vertex="1">
          <mxGeometry y="30" width="150" height="30" as="geometry" />
        </mxCell>
        <mxCell id="-_sWhagyzkq0pdcElnaS-10" value="cst_id" style="text;strokeColor=none;fillColor=none;align=left;verticalAlign=middle;spacingLeft=4;spacingRight=4;overflow=hidden;points=[[0,0.5],[1,0.5]];portConstraint=eastwest;rotatable=0;whiteSpace=wrap;html=1;fontSize=17;" parent="-_sWhagyzkq0pdcElnaS-8" vertex="1">
          <mxGeometry y="60" width="150" height="30" as="geometry" />
        </mxCell>
        <mxCell id="-_sWhagyzkq0pdcElnaS-11" value="&lt;span style=&quot;font-size: 14px;&quot;&gt;Transacional records about sales &amp;amp; orders&lt;/span&gt;" style="rounded=1;whiteSpace=wrap;html=1;fillColor=none;strokeColor=none;" parent="1" vertex="1">
          <mxGeometry x="43" y="220" width="160" height="30" as="geometry" />
        </mxCell>
        <mxCell id="-_sWhagyzkq0pdcElnaS-12" style="edgeStyle=orthogonalEdgeStyle;rounded=0;orthogonalLoop=1;jettySize=auto;html=1;entryX=0;entryY=0.067;entryDx=0;entryDy=0;entryPerimeter=0;" parent="1" source="-_sWhagyzkq0pdcElnaS-9" target="-_sWhagyzkq0pdcElnaS-6" edge="1">
          <mxGeometry relative="1" as="geometry" />
        </mxCell>
        <mxCell id="-_sWhagyzkq0pdcElnaS-13" style="edgeStyle=orthogonalEdgeStyle;rounded=0;orthogonalLoop=1;jettySize=auto;html=1;entryX=0;entryY=-0.067;entryDx=0;entryDy=0;entryPerimeter=0;" parent="1" source="-_sWhagyzkq0pdcElnaS-10" target="-_sWhagyzkq0pdcElnaS-3" edge="1">
          <mxGeometry relative="1" as="geometry" />
        </mxCell>
        <mxCell id="-_sWhagyzkq0pdcElnaS-14" value="erp_cust_az12" style="swimlane;fontStyle=0;childLayout=stackLayout;horizontal=1;startSize=30;horizontalStack=0;resizeParent=1;resizeParentMax=0;resizeLast=0;collapsible=1;marginBottom=0;whiteSpace=wrap;html=1;fillColor=#fff2cc;rounded=1;shadow=0;glass=0;fontSize=17;strokeColor=#d6b656;" parent="1" vertex="1">
          <mxGeometry x="623" y="290" width="160" height="60" as="geometry" />
        </mxCell>
        <mxCell id="-_sWhagyzkq0pdcElnaS-15" value="cid" style="text;strokeColor=none;fillColor=none;align=left;verticalAlign=middle;spacingLeft=4;spacingRight=4;overflow=hidden;points=[[0,0.5],[1,0.5]];portConstraint=eastwest;rotatable=0;whiteSpace=wrap;html=1;fontSize=17;" parent="-_sWhagyzkq0pdcElnaS-14" vertex="1">
          <mxGeometry y="30" width="160" height="30" as="geometry" />
        </mxCell>
        <mxCell id="-_sWhagyzkq0pdcElnaS-16" value="&lt;span style=&quot;font-size: 14px;&quot;&gt;Extra customer information (Birthdate)&lt;/span&gt;" style="rounded=1;whiteSpace=wrap;html=1;fillColor=none;strokeColor=none;" parent="1" vertex="1">
          <mxGeometry x="588" y="250" width="230" height="30" as="geometry" />
        </mxCell>
        <mxCell id="-_sWhagyzkq0pdcElnaS-17" value="erp_px_cat_g1v2" style="swimlane;fontStyle=0;childLayout=stackLayout;horizontal=1;startSize=30;horizontalStack=0;resizeParent=1;resizeParentMax=0;resizeLast=0;collapsible=1;marginBottom=0;whiteSpace=wrap;html=1;fillColor=#fff2cc;rounded=1;shadow=0;glass=0;fontSize=17;strokeColor=#d6b656;" parent="1" vertex="1">
          <mxGeometry x="623" y="140" width="160" height="60" as="geometry" />
        </mxCell>
        <mxCell id="-_sWhagyzkq0pdcElnaS-18" value="id" style="text;strokeColor=none;fillColor=none;align=left;verticalAlign=middle;spacingLeft=4;spacingRight=4;overflow=hidden;points=[[0,0.5],[1,0.5]];portConstraint=eastwest;rotatable=0;whiteSpace=wrap;html=1;fontSize=17;" parent="-_sWhagyzkq0pdcElnaS-17" vertex="1">
          <mxGeometry y="30" width="160" height="30" as="geometry" />
        </mxCell>
        <mxCell id="-_sWhagyzkq0pdcElnaS-19" value="&lt;span style=&quot;font-size: 14px;&quot;&gt;Product Categories&lt;/span&gt;" style="rounded=1;whiteSpace=wrap;html=1;fillColor=none;strokeColor=none;" parent="1" vertex="1">
          <mxGeometry x="613" y="110" width="180" height="30" as="geometry" />
        </mxCell>
        <mxCell id="-_sWhagyzkq0pdcElnaS-20" value="erp_loc_a101" style="swimlane;fontStyle=0;childLayout=stackLayout;horizontal=1;startSize=30;horizontalStack=0;resizeParent=1;resizeParentMax=0;resizeLast=0;collapsible=1;marginBottom=0;whiteSpace=wrap;html=1;fillColor=#fff2cc;rounded=1;shadow=0;glass=0;fontSize=17;strokeColor=#d6b656;" parent="1" vertex="1">
          <mxGeometry x="623" y="430" width="160" height="60" as="geometry" />
        </mxCell>
        <mxCell id="-_sWhagyzkq0pdcElnaS-21" value="cid" style="text;strokeColor=none;fillColor=none;align=left;verticalAlign=middle;spacingLeft=4;spacingRight=4;overflow=hidden;points=[[0,0.5],[1,0.5]];portConstraint=eastwest;rotatable=0;whiteSpace=wrap;html=1;fontSize=17;" parent="-_sWhagyzkq0pdcElnaS-20" vertex="1">
          <mxGeometry y="30" width="160" height="30" as="geometry" />
        </mxCell>
        <mxCell id="-_sWhagyzkq0pdcElnaS-22" value="&lt;span style=&quot;font-size: 14px;&quot;&gt;Location of customers (Country)&lt;/span&gt;" style="rounded=1;whiteSpace=wrap;html=1;fillColor=none;strokeColor=none;" parent="1" vertex="1">
          <mxGeometry x="603" y="400" width="210" height="30" as="geometry" />
        </mxCell>
        <mxCell id="-_sWhagyzkq0pdcElnaS-23" style="edgeStyle=orthogonalEdgeStyle;rounded=0;orthogonalLoop=1;jettySize=auto;html=1;entryX=1;entryY=0.5;entryDx=0;entryDy=0;" parent="1" source="-_sWhagyzkq0pdcElnaS-18" target="-_sWhagyzkq0pdcElnaS-5" edge="1">
          <mxGeometry relative="1" as="geometry" />
        </mxCell>
        <mxCell id="-_sWhagyzkq0pdcElnaS-24" style="edgeStyle=orthogonalEdgeStyle;rounded=0;orthogonalLoop=1;jettySize=auto;html=1;entryX=1;entryY=0.5;entryDx=0;entryDy=0;" parent="1" source="-_sWhagyzkq0pdcElnaS-15" target="-_sWhagyzkq0pdcElnaS-2" edge="1">
          <mxGeometry relative="1" as="geometry" />
        </mxCell>
        <mxCell id="-_sWhagyzkq0pdcElnaS-25" style="edgeStyle=orthogonalEdgeStyle;rounded=0;orthogonalLoop=1;jettySize=auto;html=1;entryX=1;entryY=0.5;entryDx=0;entryDy=0;" parent="1" source="-_sWhagyzkq0pdcElnaS-21" target="-_sWhagyzkq0pdcElnaS-2" edge="1">
          <mxGeometry relative="1" as="geometry" />
        </mxCell>
        <mxCell id="-_sWhagyzkq0pdcElnaS-26" value="" style="rounded=1;whiteSpace=wrap;html=1;fillColor=none;dashed=1;" parent="1" vertex="1">
          <mxGeometry x="13" y="95" width="410" height="450" as="geometry" />
        </mxCell>
        <mxCell id="-_sWhagyzkq0pdcElnaS-27" value="" style="rounded=1;whiteSpace=wrap;html=1;fillColor=none;dashed=1;" parent="1" vertex="1">
          <mxGeometry x="453" y="95" width="385" height="450" as="geometry" />
        </mxCell>
        <mxCell id="-_sWhagyzkq0pdcElnaS-28" value="&lt;font style=&quot;font-size: 25px;&quot;&gt;CRM&lt;/font&gt;" style="rounded=1;whiteSpace=wrap;html=1;fillColor=#dae8fc;strokeColor=#6c8ebf;" parent="1" vertex="1">
          <mxGeometry x="158" y="70" width="120" height="40" as="geometry" />
        </mxCell>
        <mxCell id="-_sWhagyzkq0pdcElnaS-29" value="&lt;span style=&quot;font-size: 25px;&quot;&gt;ERP&lt;/span&gt;" style="rounded=1;whiteSpace=wrap;html=1;fillColor=#fff2cc;strokeColor=#d6b656;" parent="1" vertex="1">
          <mxGeometry x="585.5" y="70" width="120" height="40" as="geometry" />
        </mxCell>
        <mxCell id="4QmQWwN0wFfLbiEszVuH-1" value="&lt;font style=&quot;font-size: 18px;&quot;&gt;PRODUCTS&lt;/font&gt;" style="text;html=1;strokeColor=#b85450;fillColor=#f8cecc;align=center;verticalAlign=middle;whiteSpace=wrap;overflow=hidden;" parent="1" vertex="1">
          <mxGeometry x="232" y="230" width="152" height="30" as="geometry" />
        </mxCell>
        <mxCell id="4QmQWwN0wFfLbiEszVuH-2" value="&lt;font style=&quot;font-size: 18px;&quot;&gt;PRODUCTS&lt;/font&gt;" style="text;html=1;strokeColor=#b85450;fillColor=#f8cecc;align=center;verticalAlign=middle;whiteSpace=wrap;overflow=hidden;" parent="1" vertex="1">
          <mxGeometry x="627" y="200" width="152" height="30" as="geometry" />
        </mxCell>
        <mxCell id="4QmQWwN0wFfLbiEszVuH-3" value="&lt;span style=&quot;font-size: 18px;&quot;&gt;CUSTOMER&lt;/span&gt;" style="text;html=1;strokeColor=#9673a6;fillColor=#e1d5e7;align=center;verticalAlign=middle;whiteSpace=wrap;overflow=hidden;" parent="1" vertex="1">
          <mxGeometry x="232" y="470" width="152" height="30" as="geometry" />
        </mxCell>
        <mxCell id="4QmQWwN0wFfLbiEszVuH-4" value="&lt;span style=&quot;font-size: 18px;&quot;&gt;CUSTOMER&lt;/span&gt;" style="text;html=1;strokeColor=#9673a6;fillColor=#e1d5e7;align=center;verticalAlign=middle;whiteSpace=wrap;overflow=hidden;" parent="1" vertex="1">
          <mxGeometry x="627" y="350" width="152" height="30" as="geometry" />
        </mxCell>
        <mxCell id="4QmQWwN0wFfLbiEszVuH-5" value="&lt;span style=&quot;font-size: 18px;&quot;&gt;CUSTOMER&lt;/span&gt;" style="text;html=1;strokeColor=#9673a6;fillColor=#e1d5e7;align=center;verticalAlign=middle;whiteSpace=wrap;overflow=hidden;" parent="1" vertex="1">
          <mxGeometry x="627" y="490" width="152" height="30" as="geometry" />
        </mxCell>
        <mxCell id="4QmQWwN0wFfLbiEszVuH-6" value="&lt;font style=&quot;font-size: 18px;&quot;&gt;SALES&lt;/font&gt;" style="text;html=1;strokeColor=#82b366;fillColor=#d5e8d4;align=center;verticalAlign=middle;whiteSpace=wrap;overflow=hidden;" parent="1" vertex="1">
          <mxGeometry x="32" y="350" width="152" height="30" as="geometry" />
        </mxCell>
        <mxCell id="sSmg9-_x7V-c3QuvozeJ-1" value="&lt;font style=&quot;font-size: 14px;&quot;&gt;Customer Relationship Management&lt;/font&gt;" style="rounded=1;whiteSpace=wrap;html=1;fillColor=none;strokeColor=none;" vertex="1" parent="1">
          <mxGeometry x="97" y="30" width="242" height="60" as="geometry" />
        </mxCell>
        <mxCell id="sSmg9-_x7V-c3QuvozeJ-2" value="&lt;span style=&quot;font-size: 14px;&quot;&gt;Enterprise Resource Planning&lt;/span&gt;" style="rounded=1;whiteSpace=wrap;html=1;fillColor=none;strokeColor=none;" vertex="1" parent="1">
          <mxGeometry x="524.5" y="30" width="242" height="60" as="geometry" />
        </mxCell>
        <mxCell id="sSmg9-_x7V-c3QuvozeJ-3" value="&lt;b style=&quot;&quot;&gt;&lt;font style=&quot;font-size: 20px;&quot;&gt;Data Integration&lt;/font&gt;&lt;/b&gt;" style="rounded=1;whiteSpace=wrap;html=1;fillColor=none;strokeColor=none;" vertex="1" parent="1">
          <mxGeometry x="310" width="242" height="60" as="geometry" />
        </mxCell>
      </root>
    </mxGraphModel>
  </diagram>
</mxfile>
